<svg width="300" height="44.654" xmlns="http://www.w3.org/2000/svg"><g id="Logo/Primary" stroke="none" stroke-width="1" fill="none" fill-rule="evenodd"><path d="M291.514 14.169c.51 0 .965-.036.965-.648 0-.493-.446-.585-.866-.585h-.82v1.233h.721zm-.72 2.234h-.6v-3.976h1.51c.94 0 1.403.345 1.403 1.13 0 .713-.446 1.023-1.03 1.095l1.13 1.751h-.674l-1.048-1.723h-.691v1.723zm.729 1.46c-1.891 0-3.495-1.46-3.495-3.458 0-1.978 1.604-3.44 3.495-3.44 1.875 0 3.477 1.462 3.477 3.44 0 1.998-1.602 3.458-3.477 3.458zm-2.803-3.458c0 1.662 1.229 2.884 2.803 2.884 1.555 0 2.785-1.222 2.785-2.884 0-1.633-1.23-2.863-2.785-2.863-1.574 0-2.803 1.23-2.803 2.863zM43.888 12.222H31.697V0H12.539v12.222H0v19.206h12.54V44h19.157V31.428h12.19V12.222zm82.91 19.236h20.728V27.24h-15.073v-3.296h14.071v-3.687h-14.07v-3.186h15.072v-4.244h-20.728v18.63zm-9.189-18.603v10.56c-.084 2.765-.447 3.659-3.622 3.659l-2.342.029-2.535-.029c-3.733-.085-3.928-.98-4.04-4.47v-9.749h-5.656v11.426c0 7.152 4.068 7.375 9.975 7.375 1.533 0 3.092.028 4.625.028 5.488 0 9.278-.838 9.278-7.123V12.855h-5.683zm-32.819-.027h-5.655v18.63h18.5v-4.663H84.79V12.828zM57.571 27.242v-3.408h10.365c1.17 0 2.397.111 2.397 1.592 0 1.677-1.115 1.816-2.481 1.816H57.571zm0-7.096v-3.24h9.863c1.143 0 2.145.167 2.145 1.565 0 1.534-1.03 1.675-2.256 1.675H57.57zm-5.657 11.313H69.83c3.958 0 6.187-1.035 6.187-5.363 0-3.073-1.198-3.688-3.983-4.133.751-.196 1.558-.391 2.144-.923.976-.81 1.114-2.233 1.114-3.408 0-3.798-2.34-4.803-5.74-4.803H51.915v18.63zm125.06-30.5h-1.927v5.063L170.985.96h-3.262v6.754h1.93V2.64l4.06 5.073h3.261V.96zm-14.098 4.13h-2.89l1.446-2.672 1.444 2.673zm.748 1.399l.636 1.227h2.263L162.844.96h-2.765l-3.76 6.755h2.285l.666-1.227h4.354zM155.707.96h-2.092l-2.03 5.122L149.909.96h-2.475l-1.767 5.122-1.97-5.122h-2.1l2.737 6.754h2.758l1.555-4.79 1.495 4.79h2.787L155.707.96zm-22.534 6.754h7.516v-1.53h-5.465V4.989h5.1V3.653h-5.1V2.498h5.465V.96h-7.516v6.754zm-3.814-4.285h-4.646V.96h-2.052v6.755h2.052V5.11h4.646v2.603h2.06V.96h-2.06v2.47zm-10.3 1.713c0 .921-.445.982-1.142.982-.353 0-.697.01-1.05.01l-.797-.02c-1.465-.04-1.537-.406-1.537-1.783 0-1.275.01-1.761 1.342-1.772l1.043-.01h.564c.192 0 .385 0 .577.01.597.03.95.121.95.778h1.988c-.029-1.203-.221-2.196-1.624-2.348-.84-.091-1.688-.091-2.526-.091-.637 0-1.282 0-1.92.052-2.152.15-2.464 1.244-2.464 3.209 0 .477.02.942.06 1.418.152 2.116 1.475 2.167 3.193 2.187l1.272.02c.525 0 1.04-.011 1.565-.03 1.99-.082 2.527-.437 2.527-2.32 0-.1-.01-.201-.01-.292h-2.012zm-10.624-2.49h2.999V.96h-8.06v1.69h3.01v5.063h2.05V2.65zM99.134 5.09h-2.89l1.445-2.673 1.445 2.673zm.747 1.398l.636 1.227h2.263L99.104.96h-2.769l-3.757 6.755h2.282l.668-1.227h4.353zM84.893.96h-2.05v6.754h2.05V5.143h1.052l3.019 2.57h3.011L87.691 4.3l3.86-3.34h-2.83l-2.776 2.542h-1.052V.96zM72.825 5.556v.406c0 1.539.829 1.702 2.121 1.782.455.029.92.029 1.373.029.88 0 1.748-.018 2.627-.07 1.554-.122 2.284-.426 2.284-2.085 0-1.753-.92-2.057-2.485-2.057-.455 0-.9-.01-1.355-.01l-1.373-.02c-.464-.021-1.172.051-1.172-.607 0-.405.383-.488.748-.506.525-.021 1.04-.051 1.565-.051.323 0 .656 0 .99.01.454.02.757.131.787.637h2.011c-.01-.425 0-.89-.221-1.286-.485-.8-1.416-.81-2.245-.82l-1.434-.02c-.777 0-2.302.01-3.019.202-1.07.274-1.253.962-1.253 1.965 0 1.266.404 1.865 1.728 1.956 1.12.068 2.252.068 3.373.068h.334c.444 0 .949.05.949.6 0 .576-.455.566-.91.585-.463.03-.917.042-1.374.042-.322 0-.646-.011-.968-.011-.466-.02-1.052-.01-1.052-.627 0-.041 0-.071-.009-.112h-2.02zM68.06 5.09h-2.89l1.446-2.673L68.06 5.09zm.748 1.398l.636 1.227h2.263L68.029.96h-2.767l-3.758 6.755h2.283l.666-1.227h4.354zm-16.786-.932v.406c0 1.539.828 1.702 2.12 1.782.455.029.918.029 1.373.029.88 0 1.749-.018 2.627-.07 1.557-.122 2.284-.426 2.284-2.085 0-1.753-.92-2.057-2.485-2.057-.454 0-.9-.01-1.355-.01l-1.372-.02c-.464-.021-1.172.051-1.172-.607 0-.405.382-.488.747-.506.525-.021 1.04-.051 1.565-.051.324 0 .657 0 .99.01.455.02.757.131.788.637h2.01c-.01-.425 0-.89-.22-1.286-.486-.8-1.417-.81-2.245-.82l-1.434-.02c-.778 0-2.302.01-3.019.202-1.071.274-1.254.962-1.254 1.965 0 1.266.404 1.865 1.728 1.956 1.121.068 2.252.068 3.373.068h.335c.444 0 .949.05.949.6 0 .576-.455.566-.91.585-.464.03-.92.042-1.373.042-.323 0-.647-.011-.97-.011-.464-.02-1.051-.01-1.051-.627 0-.041 0-.071-.01-.112h-2.02zm211.727 20.128v1.118c0 4.246 2.284 4.695 5.851 4.916 1.255.084 2.536.084 3.79.084 2.423 0 4.818-.055 7.243-.195 4.291-.336 6.296-1.174 6.296-5.755 0-4.833-2.534-5.671-6.854-5.671-1.252 0-2.478-.028-3.731-.028l-3.791-.055c-1.282-.057-3.231.139-3.231-1.677 0-1.116 1.058-1.34 2.06-1.396 1.45-.056 2.87-.14 4.32-.14.892 0 1.81 0 2.729.029 1.255.055 2.092.362 2.174 1.76h5.546c-.031-1.173 0-2.46-.614-3.549-1.338-2.207-3.9-2.235-6.184-2.262l-3.958-.056c-2.144 0-6.354.028-8.33.558-2.953.755-3.457 2.654-3.457 5.42 0 3.491 1.115 5.14 4.766 5.39 3.094.197 6.213.197 9.304.197h.922c1.225 0 2.62.139 2.62 1.647 0 1.594-1.256 1.564-2.511 1.621-1.28.083-2.534.112-3.789.112-.889 0-1.781-.029-2.673-.029-1.28-.055-2.897-.028-2.897-1.732 0-.112 0-.194-.028-.307h-5.573zm-25.184 0v1.118c0 4.246 2.284 4.695 5.85 4.916 1.251.084 2.535.084 3.788.084 2.425 0 4.82-.055 7.246-.195 4.29-.336 6.296-1.174 6.296-5.755 0-4.833-2.535-5.671-6.854-5.671-1.255 0-2.48-.028-3.733-.028l-3.792-.055c-1.28-.057-3.23.139-3.23-1.677 0-1.116 1.06-1.34 2.061-1.396 1.448-.056 2.872-.14 4.32-.14.892 0 1.81 0 2.73.029 1.255.055 2.087.362 2.173 1.76h5.542c-.025-1.173 0-2.46-.61-3.549-1.338-2.207-3.9-2.235-6.186-2.262l-3.957-.056c-2.146 0-6.352.028-8.33.558-2.954.755-3.454 2.654-3.454 5.42 0 3.491 1.113 5.14 4.764 5.39 3.093.197 6.212.197 9.305.197h.92c1.225 0 2.62.139 2.62 1.647 0 1.594-1.256 1.564-2.51 1.621a58.36 58.36 0 01-3.788.112c-.892 0-1.784-.029-2.675-.029-1.28-.055-2.898-.028-2.898-1.732 0-.112 0-.194-.027-.307h-5.571zm-21.758-3.602c0-.726 0-1.455.086-2.18.332-2.571 2.256-2.43 4.15-2.486 1.867-.028 3.763-.028 5.63-.028 1.113 0 2.673.056 3.342.642.779.726.836 2.458.836 3.604 0 .838-.028 1.678-.057 2.514-.138 2.961-1.866 3.073-4.484 3.073-.976 0-1.923.028-2.898.028-1.004 0-2.034 0-3.038-.057-3.371-.083-3.567-1.283-3.567-4.356v-.754zm2.621-9.19c-7.466.11-8.333 1.842-8.333 9.16 0 1.147 0 2.292.058 3.436.194 4.498 2.647 5.895 6.742 6.202 1.283.083 2.563.14 3.845.14.586 0 1.199 0 1.783-.028l4.263-.084c8.358-.278 8.776-2.681 8.776-9.75v-.892c0-6.704-2.146-8.241-8.608-8.241l-4.515-.028-4.01.084zm-28.283 9.44v-4.804h9.42c.53 0 1.114.028 1.616.167 1.059.307 1.086 1.061 1.114 2.04 0 2.067-.223 2.598-2.87 2.598h-9.28zm-5.653 9.302h5.653v-4.775h9.449c2.366 0 2.452.948 2.452 2.987v1.788h5.739v-3.577c0-2.569-1.42-3.266-3.79-3.573 1.17-.392 2.508-.645 3.232-1.761.697-1.117.783-2.543.783-3.826 0-4.498-1.841-5.893-6.216-5.893H185.49v18.63zm-2.225-7.095c0 .251.03.531.03.81 0 5.197-1.477 6.175-6.967 6.397a113.13 113.13 0 01-4.319.085l-3.509-.057c-4.738-.055-8.388-.194-8.804-6.034a45.225 45.225 0 01-.168-3.91c0-5.42.864-8.437 6.796-8.856 1.757-.14 3.54-.14 5.295-.14 2.312 0 4.653 0 6.966.252 3.874.419 4.401 3.156 4.487 6.482h-5.49c0-1.819-.976-2.068-2.62-2.152-.528-.027-1.056-.027-1.587-.027h-1.561l-2.87.027c-3.677.03-3.705 1.368-3.705 4.889 0 3.799.195 4.804 4.235 4.915l2.2.057c.976 0 1.923-.027 2.898-.027 1.923 0 3.151-.169 3.151-2.71h5.542z" id="Fill-1" fill="#0099D7"/></g></svg>